# xmcd
#
# Track frame offsets: 
#        150
#        10902
#        23504
#        37503
#        58724
#        72084
#        88842
#        105707
#        120695
#        136605
#
# Disc length: 2052 seconds
#
# Revision: 0
# Processed by: cddbd v1.5.2PL0 Copyright (c) Steve Scherf et al.
# Submitted via: ExactAudioCopy v1.0b1
#
DISCID=7108020a
DTITLE=Thom Shepherd - Texas Girls
DYEAR=2011
DGENRE=Country
TTITLE0=App For That
TTITLE1=Beer Season
TTITLE2=Texas Girls Featuring Kevin Fowler
TTITLE3=Riding With Private Malone
TTITLE4=Hip Hop In A Honkytonk
TTITLE5=Redneck Yacht Club
TTITLE6=Pier Pressure Featuring Roger Creager and Jason Allen
TTITLE7=A Father's Love (The Only Way He Knew How)
TTITLE8=Always Be Mine
TTITLE9=DJibouti
EXTD=
EXTT0=
EXTT1=
EXTT2=
EXTT3=
EXTT4=
EXTT5=
EXTT6=
EXTT7=
EXTT8=
EXTT9=
PLAYORDER=
